<svg
   xmlns:dc="http://purl.org/dc/elements/1.1/"
   xmlns:cc="http://creativecommons.org/ns#"
   xmlns:rdf="http://www.w3.org/1999/02/22-rdf-syntax-ns#"
   xmlns:svg="http://www.w3.org/2000/svg"
   xmlns="http://www.w3.org/2000/svg"
   width="100"
   height="100"
   viewBox="0 0 100 100"
   version="1.1"
   id="svg8">
  <defs
     id="defs2" />
  <metadata
     id="metadata5">
    <rdf:RDF>
      <cc:Work
         rdf:about="">
        <dc:format>image/svg+xml</dc:format>
        <dc:type
           rdf:resource="http://purl.org/dc/dcmitype/StillImage" />
        <dc:title></dc:title>
      </cc:Work>
    </rdf:RDF>
  </metadata>
  <g
     id="layer1">
    <path
       style="fill:#ffffff;fill-opacity:1;stroke:none;stroke-width:168.378;stroke-miterlimit:4;stroke-dasharray:none;stroke-opacity:1"
       d="M 10 0 C 4.46 0 0 4.46 0 10 L 0 90 C 0 95.54 4.46 100 10 100 L 90 100 C 95.54 100 100 95.54 100 90 L 100 10 C 100 4.46 95.54 0 90 0 L 10 0 z M 18 10 L 82 10 C 86.432 10 90 13.568 90 18 L 90 82 C 90 86.432 86.432 90 82 90 L 18 90 C 13.568 90 10 86.432 10 82 L 10 18 C 10 13.568 13.568 10 18 10 z "
       id="path857" />
    <rect
       style="fill:#ffffff;fill-opacity:1;stroke:none;stroke-width:56.6929;stroke-miterlimit:4;stroke-dasharray:none;stroke-opacity:1"
       id="rect859"
       width="65"
       height="65"
       x="17.5"
       y="17.5"
       ry="6.5" />
  </g>
</svg>
