<?xml version="1.0" encoding="UTF-8" standalone="no"?>
<!-- Created with Inkscape (http://www.inkscape.org/) -->

<svg
   xmlns:dc="http://purl.org/dc/elements/1.1/"
   xmlns:cc="http://creativecommons.org/ns#"
   xmlns:rdf="http://www.w3.org/1999/02/22-rdf-syntax-ns#"
   xmlns:svg="http://www.w3.org/2000/svg"
   xmlns="http://www.w3.org/2000/svg"
   xmlns:sodipodi="http://sodipodi.sourceforge.net/DTD/sodipodi-0.dtd"
   xmlns:inkscape="http://www.inkscape.org/namespaces/inkscape"
   width="200mm"
   height="200mm"
   viewBox="0 0 200 200"
   version="1.1"
   id="svg8"
   inkscape:version="0.92.4 (5da689c313, 2019-01-14)"
   sodipodi:docname="drawing.svg">
  <defs
     id="defs2">
    <inkscape:path-effect
       effect="spiro"
       id="path-effect4715"
       is_visible="true" />
    <inkscape:path-effect
       effect="spiro"
       id="path-effect4711"
       is_visible="true" />
    <inkscape:path-effect
       effect="spiro"
       id="path-effect4707"
       is_visible="true" />
  </defs>
  <sodipodi:namedview
     id="base"
     pagecolor="#1e1e1e"
     bordercolor="#666666"
     borderopacity="1.0"
     inkscape:pageopacity="0"
     inkscape:pageshadow="2"
     inkscape:zoom="0.70710678"
     inkscape:cx="433.25509"
     inkscape:cy="320.34907"
     inkscape:document-units="mm"
     inkscape:current-layer="layer1"
     showgrid="false"
     showguides="false"
     inkscape:window-width="1920"
     inkscape:window-height="1017"
     inkscape:window-x="-8"
     inkscape:window-y="-8"
     inkscape:window-maximized="1" />
  <metadata
     id="metadata5">
    <rdf:RDF>
      <cc:Work
         rdf:about="">
        <dc:format>image/svg+xml</dc:format>
        <dc:type
           rdf:resource="http://purl.org/dc/dcmitype/StillImage" />
        <dc:title></dc:title>
      </cc:Work>
    </rdf:RDF>
  </metadata>
  <g
     inkscape:label="Layer 1"
     inkscape:groupmode="layer"
     id="layer1"
     transform="translate(0,-97)">
    <path
       style="fill:#ffffff;fill-opacity:1;stroke:none;stroke-width:18.59038162;stroke-miterlimit:4;stroke-dasharray:none;stroke-opacity:1"
       d="m 153.47084,105.80532 -0.008,0.0187 c -3.27108,-1.46764 -7.33994,0.75658 -9.62319,4.73458 l -4.70274,9.35379 34.59878,15.5234 4.70272,-9.35378 c 1.82102,-4.18541 1.07479,-8.56999 -2.19627,-10.03763 l 0.0108,-0.0184 z m -17.31529,20.03093 c -3.3558,6.70941 -44.769245,89.0631 -48.141265,95.76525 l 34.596725,15.52247 c 3.36792,-6.70399 44.76733,-89.06396 48.15154,-95.76063 z M 84.731294,228.10303 c -10.879106,21.6556 6.590273,15.19639 -1.637331,34.25773 3.057047,1.37469 6.116148,2.74508 9.174858,4.11648 10.372669,-17.95539 16.140689,-0.90928 27.070849,-22.84651 -11.53585,-5.17671 -23.072028,-10.35202 -34.608376,-15.5277 z m -4.443528,39.66234 -4.475635,8.90214 11.297519,0.19663 2.476927,-4.92666 z"
       id="rect833-7"
       inkscape:connector-curvature="0" />
    <rect
       style="fill:#ffffff;fill-opacity:1;stroke:none;stroke-width:10.40824127;stroke-miterlimit:4;stroke-dasharray:none;stroke-opacity:1"
       id="rect4719"
       width="69.585419"
       height="8.2285099"
       x="19.579166"
       y="281.08624"
       ry="2.388922" />
  </g>
</svg>
